<?xml version="1.0" standalone="no"?>
<!DOCTYPE svg PUBLIC "-//W3C//DTD SVG 20010904//EN"
 "http://www.w3.org/TR/2001/REC-SVG-20010904/DTD/svg10.dtd">
<svg version="1.0" xmlns="http://www.w3.org/2000/svg"
 width="720.000000pt" height="320.000000pt" viewBox="0 0 720.000000 320.000000"
 preserveAspectRatio="xMidYMid meet">

<g transform="translate(0.000000,320.000000) scale(0.100000,-0.100000)"
fill="#000000" stroke="none">
<path d="M570 2260 c-287 -45 -509 -266 -556 -554 -14 -83 -15 -112 -5 -183
37 -262 198 -462 441 -547 109 -38 258 -47 365 -22 246 58 450 262 500 501 74
352 -138 703 -477 789 -75 19 -200 27 -268 16z m23 -540 c143 -309 147 -323
147 -460 l0 -110 -70 0 -70 0 0 111 0 112 -102 221 c-55 122 -116 254 -134
294 l-34 73 77 -3 77 -3 109 -235z m407 233 c-1 -5 -38 -91 -83 -193 l-82
-185 -74 -3 c-67 -3 -73 -1 -67 15 4 10 41 98 84 195 l77 178 73 0 c39 0 72
-3 72 -7z"/>
<path d="M4681 2076 c-51 -28 -64 -89 -31 -143 22 -37 54 -48 106 -39 38 8 74
52 74 93 0 76 -83 126 -149 89z"/>
<path d="M1690 1576 l0 -496 85 0 85 0 2 178 3 177 112 6 c99 5 120 10 177 38
112 55 159 137 160 281 1 74 -3 92 -27 142 -32 66 -70 101 -147 137 -52 25
-64 26 -252 29 l-198 4 0 -496z m370 342 c58 -31 80 -73 80 -158 0 -127 -57
-181 -197 -188 l-83 -5 0 187 0 186 78 0 c61 0 87 -5 122 -22z"/>
<path d="M4200 1880 l0 -80 -45 0 -45 0 0 -64 0 -65 43 -3 42 -3 5 -225 c5
-217 6 -227 30 -268 35 -63 93 -94 184 -100 39 -2 87 0 106 5 l35 9 3 67 3 68
-28 -8 c-55 -16 -110 -9 -137 16 l-26 24 0 209 0 208 85 0 85 0 0 65 0 65 -85
0 -85 0 0 80 0 80 -85 0 -85 0 0 -80z"/>
<path d="M2783 1810 c-56 -13 -120 -58 -152 -107 l-31 -46 0 71 0 72 -85 0
-85 0 0 -360 0 -360 85 0 85 0 0 230 0 230 48 49 c41 43 55 51 110 62 l62 13
0 78 c0 43 -1 78 -2 77 -2 -1 -17 -4 -35 -9z"/>
<path d="M3047 1800 c-21 -6 -60 -19 -88 -31 l-49 -21 0 -69 0 -68 54 24 c78
34 173 49 224 35 51 -13 72 -42 72 -97 l0 -43 -57 0 c-78 0 -185 -24 -235 -52
-23 -13 -55 -40 -72 -61 -25 -31 -31 -49 -34 -103 -5 -82 16 -140 68 -187 78
-71 230 -71 312 0 14 13 17 11 23 -16 l7 -31 81 0 82 0 -3 167 c-6 440 -4 413
-34 465 -40 68 -95 92 -218 95 -52 1 -112 -2 -133 -7z m213 -464 c0 -90 -8
-108 -57 -127 -37 -14 -106 -11 -130 6 -27 19 -46 76 -38 114 12 57 72 88 178
90 l47 1 0 -84z"/>
<path d="M3736 1790 c-113 -44 -185 -160 -194 -311 -15 -277 113 -421 362
-407 39 2 88 12 109 21 l37 16 0 69 0 70 -36 -18 c-95 -49 -214 -31 -259 39
-70 106 -49 322 37 385 41 29 129 33 201 8 l58 -21 -3 72 -3 72 -35 12 c-57
19 -217 15 -274 -7z"/>
<path d="M5133 1794 c-56 -20 -129 -86 -158 -143 -75 -150 -52 -394 47 -493
58 -58 116 -80 223 -86 72 -3 100 0 140 15 l50 19 3 71 3 71 -38 -19 c-21 -10
-65 -21 -98 -25 -77 -7 -139 22 -167 78 -43 84 -44 247 -1 320 44 75 138 98
246 60 l58 -21 -3 72 -3 72 -35 12 c-49 17 -216 15 -267 -3z"/>
<path d="M6522 1795 c-18 -8 -47 -24 -63 -35 l-29 -21 0 30 0 31 -85 0 -85 0
0 -360 0 -360 85 0 85 0 0 265 0 265 40 26 c54 36 117 43 150 16 l25 -20 3
-276 3 -276 79 0 80 0 2 261 3 262 37 30 c50 40 126 49 157 18 20 -20 21 -29
21 -296 l0 -275 85 0 85 0 0 288 c0 176 -4 302 -11 327 -21 78 -78 115 -179
115 -68 0 -150 -27 -187 -62 l-24 -22 -26 28 c-14 16 -41 34 -59 42 -43 18
-150 17 -192 -1z"/>
<path d="M4650 1440 l0 -360 80 0 80 0 0 360 0 360 -80 0 -80 0 0 -360z"/>
<path d="M5550 1503 c0 -272 2 -302 20 -340 34 -75 119 -106 233 -85 33 6 77
23 98 37 21 14 41 25 44 25 3 0 5 -13 5 -30 l0 -30 85 0 85 0 0 360 0 360 -85
0 -85 0 -2 -262 -3 -262 -41 -29 c-52 -37 -130 -43 -163 -13 -20 19 -21 27
-21 293 l0 273 -85 0 -85 0 0 -297z"/>
</g>
</svg>
